<svg xmlns="http://www.w3.org/2000/svg" width="3819" height="2155" viewBox="0 0 3819 2155" version="1.1">
	<path d="M 2204.500 1 L 1924.500 1.500 1924.584 179 C 1924.643 304.427, 1925.011 361.017, 1925.839 371.898 C 1927.907 399.096, 1933.986 422.914, 1944.384 444.557 C 1956.471 469.716, 2184.086 864.938, 2479.233 1373.247 L 2570.247 1529.994 2728.862 1530.247 L 2887.476 1530.500 3044.988 1828.211 L 3202.500 2125.922 3510.865 2125.961 L 3819.230 2126 3817.704 2123.671 C 3806.064 2105.906, 3374.003 1425.802, 3374.012 1425.257 C 3374.018 1424.841, 3379.081 1421.834, 3385.262 1418.576 C 3549.376 1332.062, 3657.617 1210.605, 3707.961 1056.477 C 3726.826 998.720, 3742.763 911.214, 3749.936 826 C 3755.795 756.401, 3755.214 674.279, 3748.443 615 C 3737.649 520.494, 3710.754 435.076, 3668.468 361 C 3596.694 235.267, 3477.212 137.442, 3318.564 74.517 C 3216.080 33.869, 3107.710 11.818, 2972 3.998 C 2923.720 1.216, 2660.071 0.186, 2204.500 1 M 1216.211 24.214 C 1211.577 31.840, -0 2151.989, -0 2152.472 C -0 2152.763, 330.638 2152.889, 734.750 2152.751 L 1469.500 2152.500 1469.752 1941.251 L 1470.005 1730.003 1099.053 1729.751 L 728.102 1729.500 976.301 1295.782 C 1112.810 1057.238, 1224.939 861.991, 1225.476 861.902 C 1226.012 861.813, 1394.537 1152.716, 1599.976 1508.354 L 1973.500 2154.968 2208.817 2154.984 L 2444.135 2155 2443.455 2152.750 C 2441.312 2145.653, 2434.743 2131.626, 2418.518 2099.500 C 2268 1801.472, 1418.319 322.706, 1247.221 61 C 1235.201 42.615, 1222.135 24.187, 1219.667 22.139 C 1218.467 21.143, 1217.853 21.512, 1216.211 24.214 M 2469 763.877 L 2469 1098.755 2599.750 1099.510 C 2734.544 1100.288, 2910.283 1098.946, 2933 1096.964 C 2996.901 1091.391, 3058.031 1072.244, 3106.333 1042.671 C 3140.594 1021.695, 3172.318 990.246, 3192.259 957.491 C 3216.917 916.985, 3231.338 870.299, 3237.662 810.500 C 3240.214 786.364, 3240.205 722.940, 3237.645 702.019 C 3232.152 657.115, 3222.362 623.949, 3204.138 588.500 C 3187.135 555.426, 3163.341 525.662, 3136.605 504.024 C 3109.691 482.242, 3075.420 464.906, 3041.900 456.118 C 3020.328 450.463, 3003.946 448.043, 2957 443.577 C 2890.388 437.241, 2837.926 434.980, 2699.500 432.479 C 2653.300 431.645, 2603.350 430.525, 2588.500 429.991 C 2573.650 429.457, 2540.688 429.015, 2515.250 429.010 L 2469 429 2469 763.877" stroke="none" fill="black" fill-rule="evenodd"/>
</svg>